<?xml version="1.0" encoding="UTF-8" standalone="no"?>
<!-- Created with Inkscape (http://www.inkscape.org/) -->

<svg
   xmlns:dc="http://purl.org/dc/elements/1.1/"
   xmlns:cc="http://creativecommons.org/ns#"
   xmlns:rdf="http://www.w3.org/1999/02/22-rdf-syntax-ns#"
   xmlns:svg="http://www.w3.org/2000/svg"
   xmlns="http://www.w3.org/2000/svg"
   xmlns:xlink="http://www.w3.org/1999/xlink"
   xmlns:sodipodi="http://sodipodi.sourceforge.net/DTD/sodipodi-0.dtd"
   xmlns:inkscape="http://www.inkscape.org/namespaces/inkscape"
   width="1052.3622"
   height="744.09448"
   id="svg5114"
   version="1.1"
   inkscape:version="0.48.3.1 r9886"
   sodipodi:docname="background-opendungeons.svg">
  <sodipodi:namedview
     id="base"
     pagecolor="#ffffff"
     bordercolor="#666666"
     borderopacity="1.0"
     inkscape:pageopacity="0.0"
     inkscape:pageshadow="2"
     inkscape:zoom="0.42937194"
     inkscape:cx="-346.47457"
     inkscape:cy="604.88632"
     inkscape:document-units="px"
     inkscape:current-layer="layer14"
     showgrid="false"
     inkscape:showpageshadow="false"
     inkscape:window-width="1920"
     inkscape:window-height="1021"
     inkscape:window-x="0"
     inkscape:window-y="27"
     inkscape:window-maximized="1"
     showguides="true"
     inkscape:guide-bbox="true">
    <sodipodi:guide
       orientation="1,0"
       position="1052.579,820.24387"
       id="guide6295" />
    <sodipodi:guide
       orientation="0,1"
       position="-31.441272,0"
       id="guide6299" />
    <sodipodi:guide
       orientation="0,1"
       position="373.75644,743.47227"
       id="guide6301" />
    <sodipodi:guide
       orientation="1,0"
       position="0,605.21361"
       id="guide6303" />
  </sodipodi:namedview>
  <defs
     id="defs5116">
    <linearGradient
       id="linearGradient6184">
      <stop
         id="stop6186"
         offset="0"
         style="stop-color:#2e1010;stop-opacity:1;" />
      <stop
         id="stop6188"
         offset="1"
         style="stop-color:#000000;stop-opacity:1;" />
    </linearGradient>
    <linearGradient
       id="linearGradient6176">
      <stop
         style="stop-color:#511c1c;stop-opacity:1;"
         offset="0"
         id="stop6178" />
      <stop
         style="stop-color:#000000;stop-opacity:0.54347825;"
         offset="1"
         id="stop6180" />
    </linearGradient>
    <linearGradient
       id="linearGradient6083">
      <stop
         style="stop-color:#ff854e;stop-opacity:1;"
         offset="0"
         id="stop6085" />
      <stop
         style="stop-color:#000000;stop-opacity:1;"
         offset="1"
         id="stop6087" />
    </linearGradient>
    <linearGradient
       id="linearGradient5708">
      <stop
         id="stop5710"
         offset="0"
         style="stop-color:#662929;stop-opacity:1;" />
      <stop
         id="stop5712"
         offset="1"
         style="stop-color:#000000;stop-opacity:0.0942029;" />
    </linearGradient>
    <linearGradient
       id="linearGradient5632">
      <stop
         style="stop-color:#000000;stop-opacity:1;"
         offset="0"
         id="stop5634" />
      <stop
         id="stop5644"
         offset="0.2"
         style="stop-color:#000000;stop-opacity:1;" />
      <stop
         id="stop5642"
         offset="0.40000001"
         style="stop-color:#640000;stop-opacity:1;" />
      <stop
         id="stop5640"
         offset="0.60000002"
         style="stop-color:#640000;stop-opacity:1;" />
      <stop
         style="stop-color:#000000;stop-opacity:1;"
         offset="1"
         id="stop5636" />
    </linearGradient>
    <linearGradient
       gradientUnits="userSpaceOnUse"
       y2="556.99353"
       x2="561.44543"
       y1="358.12372"
       x1="563.46576"
       id="linearGradient5714"
       xlink:href="#linearGradient5708"
       inkscape:collect="always" />
    <linearGradient
       inkscape:collect="always"
       xlink:href="#linearGradient5708"
       id="linearGradient5828"
       x1="551.49719"
       y1="295.69284"
       x2="549.96558"
       y2="95.682648"
       gradientUnits="userSpaceOnUse" />
    <linearGradient
       gradientTransform="translate(2.0203051,-36.446712)"
       gradientUnits="userSpaceOnUse"
       y2="657.7417"
       x2="488.5932"
       y1="481.97513"
       x1="483.00607"
       id="linearGradient5938"
       xlink:href="#linearGradient5708"
       inkscape:collect="always" />
    <linearGradient
       gradientUnits="userSpaceOnUse"
       y2="31.936939"
       x2="501.53568"
       y1="252.15019"
       x1="498.51538"
       id="linearGradient5952"
       xlink:href="#linearGradient5708"
       inkscape:collect="always" />
    <radialGradient
       inkscape:collect="always"
       xlink:href="#linearGradient6083"
       id="radialGradient6099"
       cx="495.9848"
       cy="572.55737"
       fx="495.9848"
       fy="572.55737"
       r="530.33002"
       gradientTransform="matrix(1,0,0,0.70285721,0,110.34343)"
       gradientUnits="userSpaceOnUse" />
    <linearGradient
       y2="657.7417"
       x2="488.5932"
       y1="481.97513"
       x1="483.00607"
       gradientTransform="translate(2.0203051,-36.446712)"
       gradientUnits="userSpaceOnUse"
       id="linearGradient6182"
       xlink:href="#linearGradient6176"
       inkscape:collect="always" />
    <linearGradient
       gradientUnits="userSpaceOnUse"
       y2="715.83813"
       x2="553.27545"
       y1="562.29498"
       x1="548.5481"
       id="linearGradient6190"
       xlink:href="#linearGradient6184"
       inkscape:collect="always" />
    <linearGradient
       y2="556.99353"
       x2="561.44543"
       y1="358.12372"
       x1="563.46576"
       gradientUnits="userSpaceOnUse"
       id="linearGradient6194"
       xlink:href="#linearGradient5708"
       inkscape:collect="always" />
    <linearGradient
       inkscape:collect="always"
       xlink:href="#linearGradient6184"
       id="linearGradient6291"
       x1="537.94879"
       y1="160.83136"
       x2="527.81256"
       y2="-25.036705"
       gradientUnits="userSpaceOnUse" />
    <linearGradient
       inkscape:collect="always"
       xlink:href="#linearGradient6176"
       id="linearGradient6293"
       gradientUnits="userSpaceOnUse"
       x1="504.57629"
       y1="207.70348"
       x2="513.65747"
       y2="19.815109" />
  </defs>
  <metadata
     id="metadata5119">
    <rdf:RDF>
      <cc:Work
         rdf:about="">
        <dc:format>image/svg+xml</dc:format>
        <dc:type
           rdf:resource="http://purl.org/dc/dcmitype/StillImage" />
        <dc:title />
      </cc:Work>
    </rdf:RDF>
  </metadata>
  <g
     inkscape:label="Background"
     id="layer11"
     inkscape:groupmode="layer"
     style="display:inline"
     sodipodi:insensitive="true">
    <rect
       y="0.62221241"
       x="0"
       height="743.47229"
       width="1052.579"
       id="rect5941"
       style="fill:url(#radialGradient6099);fill-opacity:1;stroke:none"
       ry="2.0203094" />
  </g>
  <g
     inkscape:groupmode="layer"
     id="layer8"
     inkscape:label="Rock Layer Bottom 01"
     style="display:inline"
     sodipodi:insensitive="true">
    <path
       style="fill:url(#linearGradient6194);fill-opacity:1;stroke:none"
       d="m 0,352.95309 10.548396,8.66488 10.363714,-11.52267 4.387706,-0.0117 4.271463,8.36873 4.601366,9.24586 3.712139,4.98136 6.681179,10.93484 5.387389,3.81432 1.170191,-0.0248 4.764693,17.86753 3.759229,-3.82869 1.815139,4.48362 1.957152,7.50467 6.375795,1.73724 -1.347795,0.79536 2.306573,8.16923 6.151298,-1.10353 1.929201,0.69851 2.966984,7.12656 7.886741,-10.70019 7.501728,5.36565 7.951769,-6.76688 8.93425,-5.48628 10.94346,-15.88475 7.33331,-6.35052 7.40306,-1.56168 11.64378,1.398 0.64912,0.0119 2.82238,8.23312 1.05131,-5.85248 3.3165,12.11024 0.68725,-8.02861 1.01266,6.23411 2.75858,9.40601 3.3683,9.41649 3.98551,10.40925 2.21071,3.90724 5.30529,15.84998 4.28662,-2.03 5.01217,15.26341 -0.45389,10.53734 6.35727,14.61794 23.29403,-10.63248 27.12035,-16.80058 22.21482,-16.8554 25.02747,0.88863 23.30648,-21.49657 26.36279,-0.60911 22.20162,-17.02452 25.21251,-6.55356 4.30524,-7.87169 5.50853,5.79861 -0.42053,2.46571 3.71196,8.61746 6.57479,0.33256 3.42286,-0.35458 1.31616,-3.33539 5.24277,8.90937 5.69186,2.95555 6.81871,-14.06209 7.12967,-1.73993 8.81821,8.5976 8.89158,-12.49094 6.03921,-4.28736 7.35863,9.52994 7.13041,-13.90442 7.9544,6.72315 12.70761,6.31908 7.40858,10.50882 10.41091,0.23901 7.71404,7.68128 9.7141,2.69579 8.37308,-5.83002 7.20666,14.80039 14.59705,-18.5758 10.78747,-0.49685 13.434,-13.49643 11.51748,-16.41039 12.3125,-8.68139 8.96454,-11.14456 15.22354,-3.45126 11.89833,-9.14114 13.50575,2.80964 17.42356,8.28704 17.46554,0.55674 18.10181,14.30012 18.40968,-5.51396 18.37567,16.3717 14.62097,-3.09522 19.74868,15.20843 3.75232,3.22967 4.31463,-4.11355 1.63622,0.0571 5.87363,10.05069 1.78483,-3.26104 1.91163,12.8343 6.53503,4.69876 3.86278,-5.49623 12.66452,7.87325 12.5466,-13.68027 12.51228,6.43435 15.98156,0.70036 11.73595,-3.34542 14.31794,-12.37509 14.36485,-2.44407 13.7538,-2.11901 4.06557,4.79976 0.024,-12.48278 5.18545,-0.21371 -1.3885,-2.22267 6.39668,-2.00215 -0.45455,-1.1628 1.71789,-10.75576 3.18034,2.33752 7.13356,-7.72567 5.30787,2.90231 5.38107,3.05777 5.88087,14.66352 7.8296,-5.22858 5.02904,9.87974 5.91668,2.2778 5.19024,-6.52871 -0.41567,10.72902 5.04201,17.3294 1.97032,1.61724 1.51642,18.70867 -0.23198,-0.39182 3.76309,8.27728 0.64836,9.93941 1.2172,17.98272 7.293,-8.3111 7.9576,-0.0936 10.2992,-3.03437 6.8639,-3.51677 8.6555,-14.30652 10.1299,4.7917 0,292.03915 -1052.579,0 C 0,547.7905 0,446.50866 0,352.95309 z"
       id="path5647"
       inkscape:connector-curvature="0"
       sodipodi:nodetypes="cccccccccccccccccccccccccccccccccccccccccccccccccccccccccccccccccccccccccccccccccccccccccccccccccccccccccccccccccccccccccccccccccccccccccccc" />
  </g>
  <g
     inkscape:label="Rock Layer Top 01"
     id="layer9"
     inkscape:groupmode="layer"
     style="display:inline"
     sodipodi:insensitive="true">
    <path
       sodipodi:nodetypes="cccccccccccccccccccccccccccccccccccccccccccccccccccccccccccccccccccccccccccccccccccccccccccccccccccccccccccc"
       inkscape:connector-curvature="0"
       id="path5736"
       d="M 0,0.62221242 0.39776208,233.17151 l 6.39490962,14.28863 -0.2057455,-4.65548 4.1797888,9.86 5.269761,-15.54507 3.692184,3.10991 3.787253,5.01206 -0.451624,3.66062 5.308522,14.24837 8.326111,-26.32869 11.094913,7.21948 5.030418,-12.10672 9.516575,2.56631 9.05181,-22.56849 10.948679,10.4217 9.735229,-12.36316 6.121634,-18.53076 8.09438,4.00222 3.33606,13.06224 10.10084,7.13311 3.34983,7.22898 9.30961,-8.64869 3.72376,-1.63613 7.45857,2.9634 7.35466,6.32602 28.92869,14.7818 29.15219,-7.42989 25.46019,11.34253 32.14663,-7.74921 25.47536,10.98663 28.6809,-12.6023 29.85811,-1.49555 28.57846,1.79112 -2.14387,0.70687 -0.33805,-3.72635 0.35111,-25.2115 0.37096,9.81774 -0.65858,-28.03682 -1.98933,-9.80769 -1.38597,8.71954 -1.29628,-23.41449 9.76277,13.237 12.08547,14.60823 8.4435,-9.5694 13.10099,4.2975 6.91258,17.34621 10.02925,5.05993 14.01099,3.88803 8.92826,14.46057 3.52762,4.54039 7.74195,-4.05407 4.88078,-0.87435 5.21493,7.17312 1.17361,8.78518 7.76273,10.19526 3.84123,-14.63793 4.12108,21.61028 15.14526,-2.13928 11.20944,1.4965 10.5005,-17.48874 15.95152,5.62433 11.59445,5.3881 11.93849,-18.70551 9.75133,11.50532 15.52211,2.29722 9.14775,-21.24902 9.44017,15.93622 11.99418,-7.49854 9.71785,-1.91867 10.75208,-15.71632 8.65993,9.9057 7.94298,-18.35219 10.41084,-5.91499 12.79397,35.04886 11.71196,17.77512 11.70994,16.90063 15.28201,6.68303 8.57772,26.51048 12.10595,17.20569 15.67174,13.04241 12.5123,27.63923 1.85429,-6.40969 0.94667,-12.09629 2.00528,-27.85973 6.36118,-6.99782 -1.19841,-10.69821 3.45118,-21.66563 5.8312,-0.19107 2.42231,-10.30757 12.67237,2.76892 12.12999,3.00783 11.8937,4.69571 8.70055,7.37206 12.72037,21.21039 15.14672,-3.48631 9.43007,1.0498 13.41838,26.45493 13.52417,-21.54663 13.83209,11.69193 11.78356,-18.78504 12.38892,-2.84549 11.91888,1.28281 16.74714,-0.19347 13.01025,3.78298 11.48696,-17.23877 56.40256,-30.23678 0,-252.74197758"
       style="fill:url(#linearGradient5828);fill-opacity:1;stroke:none" />
  </g>
  <g
     inkscape:groupmode="layer"
     id="layer10"
     inkscape:label="Rock Layer Bottom 02"
     style="display:inline"
     sodipodi:insensitive="true">
    <path
       style="fill:url(#linearGradient6182);fill-opacity:1;stroke:none"
       d="m 0,442.49116 11.748734,7.61114 17.428546,15.03765 14.185867,4.72635 17.946211,9.04635 6.221184,6.39895 2.647261,10.48194 5.297999,13.98675 6.969492,16.61694 20.373166,-12.2637 19.9625,-14.28131 19.973,-13.86135 17.17111,-5.494 9.26268,7.88676 5.68103,0.85045 9.31597,9.22997 5.74425,-0.9464 19.20775,-11.36949 16.17679,1.29785 21.54278,-4.65289 15.44041,-13.39157 6.1721,-7.11145 11.29763,-8.13558 3.88792,-12.2397 11.28962,-6.91608 14.48356,9.13786 15.70649,27.06086 18.27372,10.08877 13.54017,8.55119 13.91455,-11.84703 11.76445,-8.13999 9.52534,-22.69678 13.42773,-4.30334 9.00214,18.08464 7.89296,16.87371 8.43879,9.64086 12.03459,12.35959 24.82945,-15.15655 26.52889,-4.69447 25.54427,-16.99194 27.93356,-14.03824 10.85087,1.81209 13.13316,7.67106 13.82203,11.84438 14.06556,-2.85699 14.03734,14.3078 17.28798,22.22216 14.96573,9.33093 10.70821,13.44673 17.19935,-23.59103 17.21319,-19.83687 18.61357,-30.98029 19.39873,-14.60077 21.4182,4.35517 17.50729,12.02543 20.94779,5.46147 25.20899,7.69387 29.90723,-15.93141 35.71912,-6.37806 32.84353,-8.66564 29.30796,-7.63181 31.61184,14.68924 27.59717,28.93025 28.6851,20.17013 22.7444,23.78678 0,227.89198 -1052.579,0 z"
       id="path5831"
       inkscape:connector-curvature="0"
       sodipodi:nodetypes="cccccccccccccccccccccccccccccccccccccccccccccccccccccccccccccccccccc" />
  </g>
  <g
     inkscape:label="Rock Layer Top 02"
     id="layer12"
     inkscape:groupmode="layer"
     style="display:inline"
     sodipodi:insensitive="true">
    <path
       sodipodi:nodetypes="cccccccccccccccccccccccccccccccccccccccccccccccccccccccccccccccccccccccccccccccccccccccccccccccccccccccccccccccccccccccccccc"
       inkscape:connector-curvature="0"
       id="path5944"
       d="m 0,141.1715 c 0,0 -0.47725945,-6.66821 2.643004,-3.86005 l 2.2118637,-4.62368 6.3970933,-9.73574 8.347392,8.12721 2.039849,1.39775 9.652053,-1.20745 5.80829,0.76219 2.344353,4.49262 8.702217,-7.52489 4.100244,10.90313 6.064518,-2.22791 3.761219,1.78498 2.989457,9.21917 2.48736,4.40255 2.738468,-7.54648 3.167021,5.52227 3.591622,5.64714 6.278989,9.33723 13.473038,-17.28959 11.322579,1.07137 16.26922,-0.5863 14.29605,-6.68775 10.54251,-12.7822 14.56181,-8.28611 14.84218,5.76689 15.26944,-10.48309 7.41774,-0.27068 9.22576,12.25075 7.52366,-0.47259 7.59977,16.61671 9.88655,-1.29708 7.37904,1.84676 8.37723,5.88616 6.91276,5.02807 14.39685,-6.63264 14.4297,-4.88568 17.30789,-11.24715 16.83091,-2.45976 15.01853,-9.05795 12.76853,0.50057 13.83022,-11.13687 19.01033,-9.75232 2.56699,5.69761 10.54736,4.57434 4.99905,12.22114 7.00257,-5.74172 7.70835,10.53193 4.31188,0.059 5.47559,7.07864 9.34571,5.78599 9.69462,2.89002 5.79799,-3.95702 11.67993,-1.10775 9.21572,-3.93994 9.76732,-4.48314 7.68475,-14.95703 11.4166,-3.14578 6.07712,1.23595 11.16411,5.90328 13.39861,3.68864 12.20851,18.12503 7.77478,5.92002 11.32264,2.83786 11.71372,6.2897 10.81825,17.51456 10.95611,-0.17732 6.97676,6.52149 7.02282,-2.21061 7.22619,-3.21194 7.28645,-5.33668 6.50534,-4.14951 3.72621,-10.05872 5.43432,6.711 9.30486,-10.734 7.75297,4.46737 8.94073,9.4694 4.75014,10.53265 8.38158,5.98271 7.13652,-0.29862 12.07143,5.46548 4.51351,1.91961 8.88331,14.55661 4.86897,-1.84196 8.43148,15.27503 6.54366,-1.90606 4.86503,15.82057 6.68327,-2.46554 4.79148,4.73433 7.05775,10.04957 2.07211,11.00311 7.66283,-14.02279 4.37427,-7.57403 6.24161,-0.11388 0.97908,-10.46125 8.51746,-7.03203 2.65946,-10.82478 7.01454,-2.59045 1.62289,-10.32736 16.75847,-4.71692 12.01193,-1.49827 16.55139,4.79569 16.50182,-9.85172 12.17276,-10.04192 14.85449,7.7334 15.33497,-4.12014 15.90542,-6.64203 5.45845,-1.75337 12.91981,6.14436 9.08966,2.79166 8.16767,-4.61895 7.99398,2.07771 7.271,7.72067 12.56716,-0.1294 7.68871,0.73377 9.2844,7.85045 12.35839,-1.52926 10.4791,5.85544 14.8136,8.59767 7.8321,0.43873 11.7991,3.37538 0,-204.46452758 -1052.579,0 z"
       style="fill:url(#linearGradient6293);fill-opacity:1;stroke:none" />
  </g>
  <g
     inkscape:groupmode="layer"
     id="layer13"
     inkscape:label="Rock Layer Bottom 03"
     style="display:inline"
     sodipodi:insensitive="true">
    <path
       style="fill:url(#linearGradient6190);fill-opacity:1;stroke:none"
       d="m -1.2775692,344.79451 7.382178,-36.2346 3.7414321,14.90615 5.1414021,4.97103 3.84607,1.06049 6.195868,8.02901 5.695143,4.33251 5.932639,-14.41777 4.6624,8.71765 4.7585,-11.88346 5.637039,-1.86225 8.153006,5.48231 7.239519,-9.86624 4.484519,-7.17754 3.644999,-0.93057 6.862922,3.42458 6.824449,4.19107 6.350888,16.48261 8.670756,-2.72937 3.55404,11.9175 5.33701,-3.16846 6.4127,10.40049 6.15422,-0.37154 14.60404,27.95514 8.58723,15.73174 11.58532,35.53677 9.79155,12.24789 9.65281,27.97325 14.77234,26.21712 9.73822,28.03712 8.27077,15.37013 6.41903,0.31764 5.00936,3.30824 7.23577,6.33323 4.10234,11.57543 4.46158,-8.15363 4.14335,14.88733 4.33732,1.94616 5.00302,3.13931 5.45049,-2.96195 4.30257,-16.75718 4.5544,6.72917 3.08269,-4.39996 6.14725,-12.69088 4.08549,-1.40069 0.70043,-1.98783 4.08656,-13.49195 12.01708,3.98016 9.29694,4.23927 6.54757,0.50174 10.41787,3.06212 10.30227,6.24829 9.25555,7.60994 5.84708,-2.78054 10.40598,1.81543 1.99893,19.78702 2.17616,7.55114 1.84206,7.74797 1.44096,-3.65555 2.40713,18.85506 -0.74097,6.72789 3.22312,9.78685 3.26853,5.87169 17.28691,-12.27319 16.73181,8.57463 20.13482,-6.33193 17.89867,-2.56662 17.8802,-2.48108 14.88873,-1.02728 17.58172,-3.90881 19.34691,-12.21725 2.38208,3.90599 -0.34829,-16.49738 -1.49731,0.94479 4.1241,-11.87861 -1.35926,-7.69616 1.36629,5.29984 2.05699,-17.09061 -1.36978,-6.85728 9.13162,1.71112 9.23306,5.46877 5.00371,-0.16309 10.82451,6.17958 7.87028,3.38423 3.94401,0.3787 10.29462,-1.46338 7.51807,13.95911 8.81058,-6.68659 11.29808,4.69662 9.41974,16.39198 7.60159,-0.75868 12.84492,-0.79281 10.30884,14.09412 6.39559,0.20552 12.13401,11.2265 12.22294,-7.84646 12.07699,-13.9068 8.27837,0.11029 14.07572,-15.57296 8.61287,-7.4662 13.59632,3.08275 12.07558,-8.81549 11.27103,-6.42114 19.53921,-5.88843 25.03016,4.68705 22.36241,8.17001 22.01144,3.93922 18.60386,-1.473 25.84587,7.01593 21.62632,4.46494 19.84124,-6.79868 -2.5367,-12.99582 0.13726,-27.87275 -4.28011,-15.00296 -1.94871,-20.46291 -0.6783,-11.92296 -1.47291,-31.47216 -3.79984,-10.93688 1.73377,-21.57999 14.5364,-4.84127 15.93503,2.62243 19.23443,4.15329 12.98839,5.57501 16.66575,1.54059 20.08937,-2.02443 15.2499,0.23745 17.7056,13.13948 -6.8716,-30.17821 -5.0503,-18.54413 -3.8424,-22.80567 -2.5993,-9.99983 -7.0692,-22.52789 -2.3598,-29.58688 -6.7803,-11.55415 -1.3957,-19.40346 6.0813,8.75342 8.6206,1.13467 6.3009,11.89353 3.856,3.06019 12.087,13.65426 0,436.15254 -1052.579,0 z"
       id="path6102"
       inkscape:connector-curvature="0"
       sodipodi:nodetypes="ccccccccccccccccccccccccccccccccccccccccccccccccccccccccccccccccccccccccccccccccccccccccccccccccccccccccccccccccccccccccccccccccccccccccccccccc" />
  </g>
  <g
     inkscape:label="Rock Layer Top 03"
     id="layer14"
     inkscape:groupmode="layer"
     style="display:inline"
     sodipodi:insensitive="true">
    <path
       sodipodi:nodetypes="cccccccccccccccccccccccccccccccccccccccccccccccccccccccccccccccccccccccccccccccccccccccccccccccccccccccccccccccccccccccccccccccccccccccccc"
       inkscape:connector-curvature="0"
       id="path6197"
       d="m 0,74.664927 11.736924,-0.72014 8.782315,-11.618241 6.308222,0.427907 10.753853,-0.226208 1.412875,7.599048 7.502738,11.381242 1.78315,-3.628419 6.166898,13.587213 3.532,-6.427783 4.367316,4.950177 4.948635,3.74973 5.469248,3.919143 10.752055,-1.820927 11.940718,-2.909847 12.679613,-3.573038 14.05565,2.43541 10.40513,3.771713 12.59733,-13.260362 12.33954,-1.160155 8.97468,5.145261 11.5603,-1.942782 11.06249,-13.670115 7.58769,6.303054 11.47204,-1.671729 8.26164,-11.981786 10.0834,-2.932371 11.37978,-5.994522 9.74528,8.245005 18.72186,-2.085446 12.38687,9.023525 18.20118,-5.07847 14.88903,15.804636 18.13239,-3.036577 12.08464,3.629106 15.81984,5.301214 19.51242,1.872423 11.851,7.352301 8.88039,-6.951351 12.13534,3.709009 12.36654,0.848039 12.15014,-7.648073 12.11168,6.712127 12.23296,-0.09702 12.67768,-9.804019 1.60559,5.60681 5.48481,-10.434852 2.66291,0.484342 1.72307,-7.621132 2.07791,-3.8214 0.64464,-4.503373 4.6045,3.840118 0.81827,1.295144 10.12641,-5.533404 11.01901,15.995088 6.74623,0.133234 10.08027,6.280833 12.03069,1.621706 9.73797,6.161978 8.96494,15.921199 13.54698,3.51774 4.76121,-14.474831 4.44142,-0.377497 10.23048,-4.516399 3.00617,-8.297949 7.85625,-3.37487 8.37968,-17.551473 4.35586,-7.540165 6.92366,-7.5482 3.44897,6.454617 5.10473,11.687684 6.65379,-6.378536 4.60557,3.887783 3.8812,3.068736 5.39236,14.54149 2.25673,-6.049024 7.65172,8.889803 7.46461,7.604316 12.33995,-7.262184 10.25704,8.483468 8.19431,-6.830676 12.20417,6.698715 8.33684,9.298462 10.12676,-9.919244 11.87907,7.394603 0.83389,2.992751 3.951,17.30597 2.80097,5.26036 1.95356,12.56807 -0.33081,8.33404 1.97658,5.04327 3.91317,1.68967 2.16639,8.78454 9.19985,7.64732 6.01751,-3.54664 7.39579,-3.58487 6.88372,-5.49142 9.52775,-12.12746 8.04949,-2.966 5.47937,6.57332 10.75795,-4.60348 13.78668,-9.31373 12.2048,-1.71673 17.43118,3.09684 11.66349,-6.58515 14.57476,-1.70058 16.87999,5.85162 11.33622,-8.06827 16.17036,9.11262 3.98148,-7.17467 2.26991,2.58873 2.20201,13.45065 5.5262,5.42062 1.2463,0.28089 5.80486,-4.87096 5.06272,8.74678 3.5203,5.12971 0.27507,-9.94916 -0.58789,-4.80989 -2.44996,-10.43593 0.52993,-8.51117 2.93047,-18.23997 0.76213,-3.38811 -1.85048,-5.066376 0.89492,-9.477519 5.92244,4.678966 4.83392,0.272856 6.54607,4.328681 9.39895,8.427012 7.30937,2.6208 3.1359,3.7717 10.3452,2.54714 5.5336,-1.39383 12.2579,13.28678 19.1118,0.67546 0,-125.86852758 -1052.579,0 z"
       style="fill:url(#linearGradient6291);fill-opacity:1;stroke:none" />
  </g>
</svg>
